# xmcd CD database file
#
# Track frame offsets:
#	150
#	17164
#	37256
#	61036
#	83790
#	111650
#	128321
#	148586
#	170770
#	205886
#	232389
#
# Disc length: 3562 seconds
#
# Revision: 0
# Processed by: cddbd v1.5.2PL0 Copyright (c) Steve Scherf et al.
# Submitted via: CDex 1.70beta2
#
DISCID=9f0de80b
DTITLE=Craig Erickson - Big Highway
DYEAR=2007
DGENRE=Blues
TTITLE0=River Keeps On Rollin'
TTITLE1=Take Me Home
TTITLE2=Big Highway
TTITLE3=Matter Of Time
TTITLE4=In The Sky
TTITLE5=Through With You
TTITLE6=For Your Love
TTITLE7=Miracle
TTITLE8=Midnight Light
TTITLE9=Driverless Train
TTITLE10=Stratus
EXTD=YEAR: 2007
EXTT0=
EXTT1=
EXTT2=
EXTT3=
EXTT4=
EXTT5=
EXTT6=
EXTT7=
EXTT8=
EXTT9=
EXTT10=
PLAYORDER=
